<svg width="1440" height="220" viewBox="0 0 1440 220" fill="none" xmlns="http://www.w3.org/2000/svg">
<path d="M0 60L26.7 54.6999C53.3 48.9999 107 38.9999 160 54.6999C213.3 70.9999 267 113 320 97.3C373.3 81 427 6.99995 480 1.29995C533.3 -4.00005 587 60 640 97.3C693.3 135 747 145 800 129.3C853.3 113 907 71 960 76C1013.3 81 1067 135 1120 134.7C1173.3 135 1227 81 1280 60C1333.3 39 1387 48.9999 1413 54.6999L1440 60V220H1413.3C1386.7 220 1333 220 1280 220C1226.7 220 1173 220 1120 220C1066.7 220 1013 220 960 220C906.7 220 853 220 800 220C746.7 220 693 220 640 220C586.7 220 533 220 480 220C426.7 220 373 220 320 220C266.7 220 213 220 160 220C106.7 220 53 220 27 220H0V60Z" fill="#4200FF"/>
</svg>
